<mxfile host="app.diagrams.net" agent="Mozilla/5.0 (X11; Linux x86_64) AppleWebKit/537.36 (KHTML, like Gecko) Chrome/129.0.0.0 Safari/537.36" version="24.8.3">
  <diagram name="vim_modes" id="lEswRu1SnWDOIyHzt2IJ">
    <mxGraphModel dx="1062" dy="553" grid="1" gridSize="10" guides="1" tooltips="1" connect="1" arrows="1" fold="1" page="1" pageScale="1" pageWidth="827" pageHeight="1169" math="0" shadow="0">
      <root>
        <mxCell id="0" />
        <mxCell id="1" parent="0" />
        <mxCell id="3s4keck97IJ-Su45w5R2-5" style="edgeStyle=orthogonalEdgeStyle;rounded=0;orthogonalLoop=1;jettySize=auto;html=1;exitX=1;exitY=0.5;exitDx=0;exitDy=0;" edge="1" parent="1" source="3s4keck97IJ-Su45w5R2-1" target="3s4keck97IJ-Su45w5R2-3">
          <mxGeometry relative="1" as="geometry" />
        </mxCell>
        <mxCell id="3s4keck97IJ-Su45w5R2-6" value="&amp;nbsp; i&amp;nbsp;&amp;nbsp;" style="edgeLabel;html=1;align=center;verticalAlign=middle;resizable=0;points=[];fontSize=24;" vertex="1" connectable="0" parent="3s4keck97IJ-Su45w5R2-5">
          <mxGeometry x="-0.1364" y="-1" relative="1" as="geometry">
            <mxPoint x="8" as="offset" />
          </mxGeometry>
        </mxCell>
        <mxCell id="3s4keck97IJ-Su45w5R2-1" value="&lt;font style=&quot;font-size: 27px;&quot;&gt;Normal&lt;/font&gt;" style="shape=parallelogram;perimeter=parallelogramPerimeter;whiteSpace=wrap;html=1;fixedSize=1;fillColor=#d5e8d4;strokeColor=#82b366;" vertex="1" parent="1">
          <mxGeometry x="354" y="140" width="120" height="60" as="geometry" />
        </mxCell>
        <mxCell id="3s4keck97IJ-Su45w5R2-2" value="&lt;font style=&quot;font-size: 27px;&quot;&gt;Visual&lt;/font&gt;" style="shape=parallelogram;perimeter=parallelogramPerimeter;whiteSpace=wrap;html=1;fixedSize=1;fillColor=#f8cecc;strokeColor=#b85450;" vertex="1" parent="1">
          <mxGeometry x="190" y="260" width="120" height="60" as="geometry" />
        </mxCell>
        <mxCell id="3s4keck97IJ-Su45w5R2-7" style="edgeStyle=orthogonalEdgeStyle;rounded=0;orthogonalLoop=1;jettySize=auto;html=1;entryX=0.75;entryY=1;entryDx=0;entryDy=0;" edge="1" parent="1" source="3s4keck97IJ-Su45w5R2-3" target="3s4keck97IJ-Su45w5R2-1">
          <mxGeometry relative="1" as="geometry" />
        </mxCell>
        <mxCell id="3s4keck97IJ-Su45w5R2-8" value="&amp;nbsp;Esc&amp;nbsp;" style="edgeLabel;html=1;align=center;verticalAlign=middle;resizable=0;points=[];fontSize=24;" vertex="1" connectable="0" parent="3s4keck97IJ-Su45w5R2-7">
          <mxGeometry x="-0.2055" relative="1" as="geometry">
            <mxPoint as="offset" />
          </mxGeometry>
        </mxCell>
        <mxCell id="3s4keck97IJ-Su45w5R2-3" value="&lt;font style=&quot;font-size: 27px;&quot;&gt;Insert&lt;/font&gt;" style="shape=parallelogram;perimeter=parallelogramPerimeter;whiteSpace=wrap;html=1;fixedSize=1;fillColor=#dae8fc;strokeColor=#6c8ebf;" vertex="1" parent="1">
          <mxGeometry x="490" y="260" width="120" height="60" as="geometry" />
        </mxCell>
        <mxCell id="3s4keck97IJ-Su45w5R2-9" style="edgeStyle=orthogonalEdgeStyle;rounded=0;orthogonalLoop=1;jettySize=auto;html=1;entryX=0.25;entryY=1;entryDx=0;entryDy=0;" edge="1" parent="1" source="3s4keck97IJ-Su45w5R2-2" target="3s4keck97IJ-Su45w5R2-1">
          <mxGeometry relative="1" as="geometry">
            <mxPoint x="510" y="300" as="sourcePoint" />
            <mxPoint x="454" y="210" as="targetPoint" />
          </mxGeometry>
        </mxCell>
        <mxCell id="3s4keck97IJ-Su45w5R2-10" value="&amp;nbsp;Esc&amp;nbsp;" style="edgeLabel;html=1;align=center;verticalAlign=middle;resizable=0;points=[];fontSize=24;" vertex="1" connectable="0" parent="3s4keck97IJ-Su45w5R2-9">
          <mxGeometry x="-0.2055" relative="1" as="geometry">
            <mxPoint as="offset" />
          </mxGeometry>
        </mxCell>
        <mxCell id="3s4keck97IJ-Su45w5R2-11" style="edgeStyle=orthogonalEdgeStyle;rounded=0;orthogonalLoop=1;jettySize=auto;html=1;" edge="1" parent="1">
          <mxGeometry relative="1" as="geometry">
            <mxPoint x="364" y="170" as="sourcePoint" />
            <mxPoint x="250" y="260" as="targetPoint" />
          </mxGeometry>
        </mxCell>
        <mxCell id="3s4keck97IJ-Su45w5R2-12" value="&amp;nbsp;v&amp;nbsp;" style="edgeLabel;html=1;align=center;verticalAlign=middle;resizable=0;points=[];fontSize=24;labelBackgroundColor=#FFFFFF;" vertex="1" connectable="0" parent="3s4keck97IJ-Su45w5R2-11">
          <mxGeometry x="-0.1364" y="-1" relative="1" as="geometry">
            <mxPoint x="-26" y="1" as="offset" />
          </mxGeometry>
        </mxCell>
      </root>
    </mxGraphModel>
  </diagram>
</mxfile>
